<svg xmlns="http://www.w3.org/2000/svg" viewbox="0 0 28 32" width="28" height="32"><g fill="none" fill-rule="evenodd" stroke="currentColor" stroke-linecap="round" stroke-linejoin="round" stroke-width="1.999995"><path d="M10.133303 15.5052946c-.27613267.0022247-.49817878.2278781-.49595479.5040107.00222477.2761327.2278781.4981788.50401079.4959548.2761326-.0022248.4981787-.2278781.4959547-.5040108a.50340064.50340064 0 0 0-.000012-.0012888v-.0000015c.0007365-.2754046-.2219261-.4992601-.4973295-.4999974a.49513757.49513757 0 0 0-.0026702 0M18.9999474 3.99999h5.9999851c1.1045665-5e-8 1.9999949.89542843 1.9999949 1.999995v19.99995c0 1.1045666-.8954284 1.999995-1.999995 1.999995h-5.999985"/><path d="M13.858627 30.9945892L1.85865702 29.2799268c-.49274546-.0697653-.85892721-.4916721-.85866455-.9893309V4.96665425l-4e-8-.00005011c-.00036439-.47192015.32924451-.87985913.79071403-.97862422L13.7906765 1.02665399c.5400465-.11561156 1.0715639.22846211 1.1871743.76850876a1.0000114 1.0000114 0 0 1 .0221554.21015548V30.0052482v-.0000131c-.0003303.5522826-.4483122.9997295-1.0005949.9993988a1.00000694 1.00000694 0 0 1-.1407716-.0100429l-.0000127-.0000018z"/></g></svg>